<svg t="1721726362628" class="icon" viewBox="0 0 1024 1024" version="1.1" xmlns="http://www.w3.org/2000/svg" p-id="4294"
  width="1024" height="1024">
  <rect x="0" y="0" width="1024" height="1024" />
  <path
    d="M512 298.705455a212.014545 212.014545 0 0 0-150.900364 62.487272 212.014545 212.014545 0 0 0-62.510545 150.900364 212.014545 212.014545 0 0 0 62.510545 150.900364A212.014545 212.014545 0 0 0 512 725.504a212.014545 212.014545 0 0 0 150.900364-62.510545 212.014545 212.014545 0 0 0 62.510545-150.900364 212.014545 212.014545 0 0 0-62.510545-150.900364A212.014545 212.014545 0 0 0 512 298.705455z m0 362.58909A149.504 149.504 0 0 1 362.705455 512 149.504 149.504 0 0 1 512 362.705455 149.504 149.504 0 0 1 661.294545 512 149.504 149.504 0 0 1 512 661.294545z m448-57.297454v-183.994182l-105.099636-30.603636c-4.002909-11.194182-8.610909-22.295273-13.800728-33.093818l52.712728-96-130.094546-130.094546-95.906909 52.596364a371.432727 371.432727 0 0 0-33.303273-13.917091l-30.487272-104.890182h-184.017455l-30.487273 104.890182c-11.310545 4.119273-22.504727 8.704-33.326545 13.917091l-95.883636-52.596364-130.094546 130.094546 52.689455 96.116363a371.432727 371.432727 0 0 0-13.893819 33.28L64 419.909818v183.994182l105.192727 30.906182c4.096 11.170909 8.704 22.295273 13.800728 33.093818L130.094545 763.694545l130.094546 130.094546 96.209454-52.48c10.891636 5.189818 21.992727 9.774545 33.28 13.800727l30.324364 104.890182h183.994182l30.813091-105.006545c11.287273-4.096 22.481455-8.704 33.28-13.893819l95.604363 52.805819 130.094546-130.094546-52.596364-96.302545c5.12-10.705455 9.611636-21.713455 13.707637-32.907637l105.099636-30.603636z m-124.695273-22.993455h-20.712727l-6.493091 21.294546a311.156364 311.156364 0 0 1-22.900364 55.109818l-10.496 19.688727 15.290182 15.313455 35.304728 64.581818-68.305455 68.119273-65.792-36.305455-14.103273-14.010182-19.688727 10.496a308.596364 308.596364 0 0 1-55.109818 22.900364l-21.410909 6.516364v21.410909l-20.689455 70.586182H463.825455l-20.805819-72.215273v-19.781818l-21.410909-6.516364a308.596364 308.596364 0 0 1-55.086545-22.900364l-19.781818-10.589091-15.127273 15.290182-64.581818 35.211637-68.119273-68.096 36.305455-65.815273 14.103272-14.103273-10.496-19.688727a305.570909 305.570909 0 0 1-22.900363-55.109818l-6.516364-21.294546h-21.480727l-70.609455-20.712727v-96.372364l72.215273-20.805818h19.898182l6.493091-21.294545c5.701818-18.804364 13.498182-37.306182 22.900363-55.109818l10.496-19.712-14.708363-14.685091-35.700364-65.396364 68.119273-68.119273 65.186909 35.816728 14.615273 14.592 19.688727-10.496a301.428364 301.428364 0 0 1 55.109818-22.900364l21.410909-6.516364v-20.48l20.782546-71.400727h96.395636l20.805818 71.400727v20.48l21.410909 6.516364a305.570909 305.570909 0 0 1 55.086546 22.900364l19.898181 10.58909 14.49891-14.801454 65.093818-35.700364 68.119272 68.119273-35.816727 65.186909-14.685091 14.708364 10.472728 19.688727c9.425455 17.687273 17.128727 36.212364 22.923636 55.109818l6.516364 21.294546h20.689454l71.400727 20.805818v96.395636l-71.307636 20.805818z"
    fill="#333333" p-id="4295"></path>
</svg>