<svg width="22" height="22" viewBox="0 0 22 22" xmlns="http://www.w3.org/2000/svg">
  <path
    d="M8.99414 12.9933V20.8683C8.99414 21.3933 8.64414 21.7433 8.11914 21.7433C7.59414 21.7433 7.24414 21.3933 7.24414 20.8683V15.9683L1.81914 21.5683C1.64414 21.7433 1.29414 21.7433 1.11914 21.7433C0.944141 21.7433 0.594142 21.7433 0.419142 21.5683C0.244142 21.2183 0.244142 20.5183 0.419142 20.1683L6.01914 14.7433H1.11914C0.594141 14.7433 0.244141 14.3933 0.244141 13.8683C0.244141 13.3433 0.594141 12.9933 1.11914 12.9933H8.99414ZM21.575 0.799729C21.225 0.624729 20.525 0.449729 20.175 0.799729L14.75 6.39973V1.49973C14.75 0.974728 14.4 0.624728 13.875 0.624728C13.35 0.624728 13 0.974728 13 1.49973V9.37473H20.875C21.4 9.37473 21.75 9.02473 21.75 8.49973C21.75 7.97473 21.4 7.62473 20.875 7.62473H15.975L21.575 2.19973C21.75 1.84973 21.75 1.14973 21.575 0.799729ZM21.7461 13.8683C21.7461 13.3433 21.3961 12.9933 20.8711 12.9933H12.9961V20.8683C12.9961 21.3933 13.3461 21.7433 13.8711 21.7433C14.3961 21.7433 14.7461 21.3933 14.7461 20.8683V15.9683L20.1711 21.3933C20.3461 21.7433 20.6961 21.7433 20.8711 21.7433C21.0461 21.7433 21.3961 21.7433 21.5711 21.5683C21.7461 21.2183 21.7461 20.5183 21.5711 20.1683L15.9711 14.7433H20.8711C21.3961 14.7433 21.7461 14.3933 21.7461 13.8683ZM8.12305 0.624728C7.59805 0.624728 7.24805 0.974728 7.24805 1.49973V6.39973L1.82305 0.974727C1.47305 0.624727 0.773048 0.624727 0.423048 0.974727C0.248048 1.32473 0.248048 1.84973 0.423048 2.19973L5.84805 7.62473H1.12305C0.598047 7.62473 0.248047 7.97473 0.248047 8.49973C0.248047 9.02473 0.598047 9.37473 1.12305 9.37473H8.99805V1.49973C8.99805 0.974728 8.64805 0.624728 8.12305 0.624728Z"
    fill="#6CF" />
</svg>