<svg width="21" height="21" xmlns="http://www.w3.org/2000/svg"><path d="M21 0v7.875c0 .525-.35.875-.875.875s-.875-.35-.875-.875v-4.9l-5.425 5.6c-.175.175-.525.175-.7.175-.175 0-.525 0-.7-.175-.175-.35-.175-1.05 0-1.4l5.6-5.425h-4.9c-.525 0-.875-.35-.875-.875S12.6 0 13.125 0H21ZM8.575 12.425c-.35-.175-1.05-.35-1.4 0l-5.425 5.6v-4.9c0-.525-.35-.875-.875-.875S0 12.6 0 13.125V21h7.875c.525 0 .875-.35.875-.875s-.35-.875-.875-.875h-4.9l5.6-5.425c.175-.35.175-1.05 0-1.4ZM8.75.875C8.75.35 8.4 0 7.875 0H0v7.875c0 .525.35.875.875.875s.875-.35.875-.875v-4.9L7.175 8.4c.175.35.525.35.7.35.175 0 .525 0 .7-.175.175-.35.175-1.05 0-1.4l-5.6-5.425h4.9c.525 0 .875-.35.875-.875ZM20.125 12.25c-.525 0-.875.35-.875.875v4.9L13.825 12.6c-.35-.35-1.05-.35-1.4 0-.175.35-.175.875 0 1.225l5.425 5.425h-4.725c-.525 0-.875.35-.875.875s.35.875.875.875H21v-7.875c0-.525-.35-.875-.875-.875Z" fill="#6CF"/></svg>