<svg width="22" height="22" xmlns="http://www.w3.org/2000/svg"><path d="M8.9941 12.9933v7.875c0 .525-.35.875-.875.875s-.875-.35-.875-.875v-4.9l-5.425 5.6c-.175.175-.525.175-.7.175-.175 0-.525 0-.7-.175-.175-.35-.175-1.05 0-1.4l5.6-5.425h-4.9c-.525 0-.875-.35-.875-.875s.35-.875.875-.875h7.875ZM21.575.7997c-.35-.175-1.05-.35-1.4 0l-5.425 5.6v-4.9c0-.525-.35-.875-.875-.875s-.875.35-.875.875v7.875h7.875c.525 0 .875-.35.875-.875s-.35-.875-.875-.875h-4.9l5.6-5.425c.175-.35.175-1.05 0-1.4Zm.1711 13.0686c0-.525-.35-.875-.875-.875h-7.875v7.875c0 .525.35.875.875.875s.875-.35.875-.875v-4.9l5.425 5.425c.175.35.525.35.7.35.175 0 .525 0 .7-.175.175-.35.175-1.05 0-1.4l-5.6-5.425h4.9c.525 0 .875-.35.875-.875ZM8.1231.6247c-.525 0-.875.35-.875.875v4.9L1.823.9747c-.35-.35-1.05-.35-1.4 0-.175.35-.175.875 0 1.225l5.425 5.425H1.123c-.525 0-.875.35-.875.875s.35.875.875.875h7.875v-7.875c0-.525-.35-.875-.875-.875Z" fill="#6CF"/></svg>