<svg width="21" height="21" viewBox="0 0 21 21" xmlns="http://www.w3.org/2000/svg">
  <path
    d="M21 0V7.875C21 8.4 20.65 8.75 20.125 8.75C19.6 8.75 19.25 8.4 19.25 7.875V2.975L13.825 8.575C13.65 8.75 13.3 8.75 13.125 8.75C12.95 8.75 12.6 8.75 12.425 8.575C12.25 8.225 12.25 7.525 12.425 7.175L18.025 1.75H13.125C12.6 1.75 12.25 1.4 12.25 0.875C12.25 0.35 12.6 0 13.125 0H21ZM8.575 12.425C8.225 12.25 7.525 12.075 7.175 12.425L1.75 18.025V13.125C1.75 12.6 1.4 12.25 0.875 12.25C0.35 12.25 0 12.6 0 13.125V21H7.875C8.4 21 8.75 20.65 8.75 20.125C8.75 19.6 8.4 19.25 7.875 19.25H2.975L8.575 13.825C8.75 13.475 8.75 12.775 8.575 12.425ZM8.75 0.875C8.75 0.35 8.4 0 7.875 0H0V7.875C0 8.4 0.35 8.75 0.875 8.75C1.4 8.75 1.75 8.4 1.75 7.875V2.975L7.175 8.4C7.35 8.75 7.7 8.75 7.875 8.75C8.05 8.75 8.4 8.75 8.575 8.575C8.75 8.225 8.75 7.525 8.575 7.175L2.975 1.75H7.875C8.4 1.75 8.75 1.4 8.75 0.875ZM20.125 12.25C19.6 12.25 19.25 12.6 19.25 13.125V18.025L13.825 12.6C13.475 12.25 12.775 12.25 12.425 12.6C12.25 12.95 12.25 13.475 12.425 13.825L17.85 19.25H13.125C12.6 19.25 12.25 19.6 12.25 20.125C12.25 20.65 12.6 21 13.125 21H21V13.125C21 12.6 20.65 12.25 20.125 12.25Z"
    fill="#6CF" />
</svg>