<svg width="20" height="20" xmlns="http://www.w3.org/2000/svg"><path d="M3.166 1.6044h3.4343c1.2587 0 2.289 1.0303 2.289 2.289v5.7233H3.1659c-1.2586 0-2.289-1.0303-2.289-2.291V3.8914c0-1.2566 1.0304-2.287 2.289-2.287Zm0 10.3012h5.7233v5.7234c0 1.2586-1.0303 2.289-2.289 2.289H3.166C1.9073 19.916.877 18.8876.877 17.627v-3.4344c0-1.2566 1.0304-2.287 2.289-2.287Zm12.0184-.5737-4.0062-4.1193c-.4585-.3434-.6868-1.0303-.6868-1.602 0-.5718.2283-1.1456.6868-1.6021l2.4041-2.4041c.9152-.9152 2.4041-.9152 3.2042 0l2.4041 2.404c.4586.4586.6869 1.0304.6869 1.6021 0 .5718-.2283 1.1455-.6869 1.602l-4.0062 4.1194Zm0-9.271c-.3434 0-.5717.1152-.802.3435l-2.4021 2.404c-.2283.2284-.3435.4587-.3435.8021 0 .3435.1152.5718.3435.802l3.2041 3.2042 3.2041-3.2041c.2283-.2284.3435-.4586.3435-.802 0-.3435-.1152-.5718-.3435-.8021l-2.4041-2.4041c-.2283-.2283-.4566-.3434-.8-.3434ZM11.1777 11.9062h5.7234c1.2586 0 2.289 1.0304 2.289 2.289v3.4344c0 1.2587-1.0304 2.289-2.289 2.289h-3.4344c-1.2586 0-2.289-1.0303-2.289-2.289v-5.7234Z" fill="#6CF"/></svg>