<svg width="20" height="20" viewBox="0 0 20 20" xmlns="http://www.w3.org/2000/svg">
  <path
    d="M3.16591 1.60436H6.60033C7.85896 1.60436 8.88928 2.63468 8.88928 3.89331V9.61669H3.16591C1.90728 9.61669 0.876953 8.58636 0.876953 7.32575V3.89132C0.876953 2.63468 1.90728 1.60436 3.16591 1.60436ZM3.16591 11.9056H8.88928V17.629C8.88928 18.8876 7.85896 19.918 6.60033 19.918H3.16591C1.90728 19.916 0.876953 18.8876 0.876953 17.627V14.1926C0.876953 12.936 1.90728 11.9056 3.16591 11.9056ZM15.1844 11.3319L11.1782 7.21259C10.7197 6.86915 10.4914 6.18226 10.4914 5.61052C10.4914 5.03878 10.7197 4.46505 11.1782 4.00845L13.5823 1.60436C14.4975 0.689173 15.9864 0.689173 16.7865 1.60436L19.1906 4.00845C19.6492 4.46704 19.8775 5.03878 19.8775 5.61052C19.8775 6.18226 19.6492 6.75599 19.1906 7.21259L15.1844 11.3319ZM15.1844 2.06096C14.841 2.06096 14.6127 2.1761 14.3824 2.4044L11.9803 4.80849C11.752 5.03679 11.6368 5.26708 11.6368 5.61052C11.6368 5.95396 11.752 6.18226 11.9803 6.41255L15.1844 9.61669L18.3885 6.41255C18.6168 6.18425 18.732 5.95396 18.732 5.61052C18.732 5.26708 18.6168 5.03878 18.3885 4.80849L15.9844 2.4044C15.7561 2.1761 15.5278 2.06096 15.1844 2.06096Z"
    fill="#6CF" />
  <path
    d="M11.1777 11.9062H16.9011C18.1597 11.9062 19.1901 12.9366 19.1901 14.1952V17.6296C19.1901 18.8883 18.1597 19.9186 16.9011 19.9186H13.4667C12.2081 19.9186 11.1777 18.8883 11.1777 17.6296V11.9062Z"
    fill="#6CF" />
</svg>