<svg width="16" height="16" xmlns="http://www.w3.org/2000/svg"><path d="M8.0002 2.7113c2.8963 0 5.2532 2.3623 5.2532 5.2874h.9614c0-3.451-2.7824-6.2487-6.2146-6.2487-2.2364 0-4.1968 1.1877-5.2915 2.97V2.6425H1.75V5.749a.5.5 0 0 0 .5.5h3.0868v-.964H3.4904c.9187-1.5428 2.5965-2.5736 4.5098-2.5736ZM1.7855 7.9986h.9614c0 2.9251 2.3569 5.2874 5.2532 5.2874 1.9133 0 3.5911-1.0307 4.5098-2.5736h-1.8467v-.964H13.75a.5.5 0 0 1 .5.5v3.1064h-.9587v-2.0769c-1.0947 1.782-3.055 2.9695-5.2912 2.9695-3.4322 0-6.2146-2.7977-6.2146-6.2488Z" fill="#6CF"/></svg>