<svg width="16" height="16" viewBox="0 0 16 16" xmlns="http://www.w3.org/2000/svg">
  <path
    d="M3.99966 11.0005L8.24241 13.5461C8.57568 13.7461 8.99966 13.506 8.99966 13.1174V2.88358C8.99966 2.49494 8.57568 2.25488 8.24241 2.45484L3.99966 5.00049H2.10448C1.77333 5.00049 1.50479 5.26878 1.50448 5.59993L1.5 10.3999C1.49969 10.7315 1.76841 11.0005 2.1 11.0005H3.99966ZM4.99966 5.56668L7.99966 3.76668V12.2343L4.99966 10.4343V5.56668ZM3.99966 10.0005H2.50037L2.50411 6.00049H3.99966V10.0005Z"
    fill="#6CF" />
  <path
    d="M13.5147 5.72735C13.1938 5.00417 12.7213 4.3424 12.1206 3.7818L12.803 3.05074C13.4994 3.70075 14.0518 4.47243 14.4288 5.32171C14.8057 6.17099 14.9997 7.08124 14.9997 8.00049C14.9997 8.91974 14.8057 9.82999 14.4288 10.6793C14.0518 11.5286 13.4994 12.3002 12.803 12.9502L12.1206 12.2192C12.7213 11.6586 13.1938 10.9968 13.5147 10.2736C13.8356 9.55065 13.9997 8.77846 13.9997 8.00049C13.9997 7.22252 13.8356 6.45033 13.5147 5.72735Z"
    fill="#6CF" />
  <path
    d="M11.4997 8.00076C11.5005 7.12784 11.14 6.24712 10.4272 5.54687L11.128 4.8335C12.0228 5.71252 12.5007 6.84688 12.4997 8.00162C12.4987 9.15638 12.0188 10.2902 11.1224 11.168L10.4228 10.4535C11.137 9.75412 11.499 8.87373 11.4997 8.00076Z"
    fill="#6CF" />
</svg>