<svg width="16" height="16" xmlns="http://www.w3.org/2000/svg"><path d="m3.9997 11.0005 4.2427 2.5456c.3333.2.7573-.0401.7573-.4287V2.8836c0-.3887-.424-.6287-.7573-.4288L3.9997 5.0005H2.1045a.6.6 0 0 0-.6.5994L1.5 10.4a.6.6 0 0 0 .6.6006h1.8997Zm1-5.4338 3-1.8v8.4676l-3-1.8V5.5667Zm-1 4.4338H2.5004l.0037-4h1.4956v4ZM13.5147 5.7274c-.3209-.7232-.7934-1.385-1.3941-1.9456l.6824-.731c.6964.65 1.2488 1.4216 1.6258 2.271.3769.8492.5709 1.7594.5709 2.6787 0 .9192-.194 1.8295-.5709 2.6788-.377.8493-.9294 1.6209-1.6258 2.2709l-.6824-.731c.6007-.5606 1.0732-1.2224 1.3941-1.9456.3209-.723.485-1.4951.485-2.2731 0-.778-.1641-1.5502-.485-2.2732Z" fill="#6CF"/><path d="M11.4997 8.0008c.0008-.873-.3597-1.7537-1.0725-2.454l.7008-.7133c.8948.879 1.3727 2.0134 1.3717 3.1681-.001 1.1548-.4809 2.2886-1.3773 3.1664l-.6996-.7145c.7142-.6994 1.0762-1.5798 1.0769-2.4527Z" fill="#6CF"/></svg>